<svg width="68" height="93" viewBox="0 0 68 93" fill="none" xmlns="http://www.w3.org/2000/svg">
<path d="M34 0L0 6.38281V32.75C0 34.2969 0.3125 70.9453 32.9297 91.7266L34.0078 92.4141L35.0781 91.7266C67.625 70.8438 68 34.2891 68 32.7422V6.38281L34 0ZM22 44.2422C22 44.2422 21.7969 45.4375 21.3984 45.8359C20.7969 46.4375 18.2031 44.8359 18.2031 44.8359C18.2031 44.8359 18.7969 43.6406 20.7969 43.0391C20.7969 43.0391 20.7969 42.8359 21 42.4375C21 42.2422 25 38.6406 25.3984 38.6406C26.3984 38.6406 28 40.8359 29.3984 42.4375C28.7969 43.6406 27.7969 44.4375 27.3984 44.6406C26.7969 43.8359 25.6016 42.2422 25.2031 41.8359C25.2031 41.8359 24 42.8359 23.3984 43.4375L22.7969 44.0391C22.6016 44.2422 22 44.2422 22 44.2422ZM30 66.0391C29.7969 66.2422 29.3984 66.0391 29.2031 66.0391C28.7969 65.8359 28.6016 65.0391 28.6016 65.0391C28.6016 65.0391 27.7969 65.8359 27.6016 65.8359C26.7969 66.0391 24.3984 63.2422 24.3984 63.2422C24.3984 63.2422 25.6016 62.0391 27.7969 62.4375C28.2031 62.6406 28 62.2422 28.3984 62.0391C29.2031 61.8359 30.2031 62.6406 32 62.0391C32.3984 61.8359 32 59.4375 32.2031 56.2422C32.3984 56.4375 33.6016 57.4375 33.7969 57.6406C32.7969 61.4375 34.7969 63.4375 34.7969 63.4375C35 63.8359 34.7969 64.2422 34.6016 64.6406C33.7969 64.6406 31.6016 65.0391 31 65.4375C30.7969 65.4375 30.2031 65.8359 30 66.0391ZM44.6016 58.0391C44.3984 58.0391 44 57.8359 43.7969 58.2422C41 61.6406 38.7969 61.4375 39 64.0391C39 64.6406 40 65.8359 40 66.0391C39.3984 66.4375 38.3984 68.2422 38.2031 69.0391C38.2031 69.2422 37.7969 70.0391 37.7969 70.2422C37.7969 70.4375 37.3984 70.4375 37.2031 70.6406C37 70.6406 36.2031 70.4375 36.2031 70.4375C36.2031 70.4375 36.2031 71.4375 36 71.6406C35.3984 72.2422 32 71.8359 32 71.8359C32 71.8359 32.3984 70.2422 34.3984 69.2422C34.7969 69.0391 34.3984 68.8359 34.6016 68.4375C35 67.8359 35.2031 67.6406 36.2031 66.0391C36.3984 65.4375 36.3984 64.8359 35 62.0391C34 60.2422 34 55.8359 38 55.4375C36.3984 55.2422 35.3984 56.2422 34.7969 56.8359C30.6016 54.2422 28.3984 50.4375 28.3984 50.4375C28.3984 50.4375 27.3984 50.4375 25 50.4375C24.7969 50.4375 25.7969 53.2422 26 53.6406C26 53.8359 26 54.4375 26 54.4375C26 54.4375 27.2031 54.8359 27.3984 55.2422C27.7969 56.0391 25.7969 58.4375 25.7969 58.4375C25.7969 58.4375 24.7969 57.4375 24.6016 55.4375C24.6016 55.4375 24.6016 55.2422 24.2031 55.0391C24 55.0391 23.6016 54.6406 23.6016 54.2422C23 52.2422 22.6016 50.8359 22.6016 50.0391C22.3984 49.2422 22.3984 48.8359 22.6016 48.2422C22.7969 47.6406 24.2031 47.8359 24.3984 47.6406C25.7969 47.4375 27 47.0391 29.3984 45.2422C30.7969 44.0391 32.2031 39.0391 32.3984 37.6406C34.2031 37.6406 34.7969 36.8359 35.2031 34.6406C34.2031 36.2422 33.6016 36.6406 33 36.6406C31.3984 36.6406 30.3984 35.6406 29.3984 35.6406C28.7969 35.6406 28 36.2422 27.6016 36.2422C26.3984 36.2422 26 35.4375 26.2031 34.4375C26.2031 34.0391 26.3984 33.6406 26.7969 33.2422C27.6016 32.4375 28 33.2422 31 32.0391C31.6016 31.6406 31.7969 30.2422 34.2031 30.2422C34.2031 29.2422 34.6016 28.6406 35 28.2422C35.2031 28.6406 35.7969 30.0391 36.2031 30.2422C37.2031 30.2422 37.6016 32.2422 40.2031 32.2422C39.7969 32.6406 39 33.0391 38.3984 33.0391C38.6016 33.4375 40.3984 34.2422 41.2031 35.0391C40.3984 35.2422 38.7969 35.0391 38.3984 35.0391C39.7969 36.0391 41.6016 37.0391 42 38.2422C41.2031 37.6406 39.2031 37.4375 38.6016 37.4375C39.2031 38.2422 40.3984 39.4375 42 40.0391C40 40.4375 39.3984 40.2422 38.6016 40.0391C39 41.2422 40.6016 42.0391 41.6016 42.4375C40.6016 42.8359 38.3984 42.4375 38 42.0391C38.3984 42.8359 40.2031 44.2422 41.6016 44.8359C40.7969 45.2422 38.2031 44.6406 37.6016 44.2422C38 44.8359 39.3984 45.8359 40 46.2422C39.2031 46.2422 37.7969 46.2422 37.2031 45.6406C36.7969 46.6406 38 48.8359 40.2031 50.2422C45 53.0391 44.6016 54.8359 44.7969 55.6406C44.6016 56.2422 45.2031 56.2422 45.3984 56.0391C46 54.8359 46.2031 55.2422 46.2031 48.0391C46.2031 45.2422 47.2031 44.4375 48 44.0391C48 44.0391 46.6016 46.4375 47.3984 48.0391C47.6016 46.4375 49.6016 45.2422 49.6016 45.2422C49.6016 45.2422 48.2031 48.2422 48.3984 50.0391C48.3984 50.0391 48.3984 51.0391 50 49.2422C49.2031 53.8359 49.7969 58.0391 44.6016 58.0391ZM64 22.5938C54.3828 19.3203 44.3125 17.6406 34 17.6406C20.5859 17.6406 10.1797 20.3594 4 22.5312V17.6953L34 12.0703L64 17.6953V22.5938ZM34 8L4 13.6328V9.69531L34 4.07031L64 9.69531V13.6328L34 8Z" fill="black"/>
</svg>
